<?xml version="1.0" encoding="iso-8859-1"?>
<!-- Generator: Adobe Illustrator 19.0.0, SVG Export Plug-In . SVG Version: 6.00 Build 0)  -->
<svg version="1.1" id="Layer_1" xmlns="http://www.w3.org/2000/svg" xmlns:xlink="http://www.w3.org/1999/xlink" x="0px" y="0px"
	 viewBox="0 0 341.967 341.967" style="enable-background:new 0 0 341.967 341.967;" xml:space="preserve">
<g id="XMLID_998_">
	<g id="XMLID_999_">
		<path id="XMLID_1899_" style="fill:#FFE165;" d="M76.874,44.345L35.02,61.269l-2.6-18.547c-1.184-8.446,3.532-16.613,11.438-19.81
			l0,0c7.906-3.197,16.974-0.603,21.993,6.292L76.874,44.345z"/>
		<path id="XMLID_1900_" style="fill:#FFE165;" d="M28.151,70.746l-0.114-2.923c-0.255-6.569,3.639-12.593,9.734-15.058
			L66.569,41.12c7.982-3.228,17.069,0.627,20.297,8.609l1.56,3.858c31.322,77.461,119.826,114.997,197.288,83.674
			c7.291-2.948,14.369-6.462,21.041-10.446l0,0c10.404-6.208,23.892-1.673,28.434,9.558l5.337,13.198
			c2.581,6.382,1.653,13.647-2.449,19.176l0,0c-7.375,9.943-15.974,19.081-25.562,27.163
			c-13.837,11.648-29.405,21.015-46.273,27.839h-0.001c-20.825,8.421-42.772,12.688-65.232,12.682
			c-23.017-0.005-45.455-4.508-66.692-13.385C72.407,197.162,30.735,137.38,28.151,70.746z"/>
		<path id="XMLID_1902_" style="fill:#FFA250;" d="M328.712,157.722c-13.837,11.648-29.405,21.015-46.273,27.839h-0.001
			c-20.825,8.421-42.772,12.688-65.232,12.682c-23.017-0.005-45.455-4.508-66.692-13.385
			c-56.613-23.67-96.297-75.687-104.65-135.366l-8.093,3.273c-6.095,2.465-9.989,8.488-9.734,15.058l0.114,2.923
			c2.583,66.634,44.256,126.417,106.166,152.301c21.237,8.876,43.675,13.38,66.692,13.385c22.46,0.006,44.407-4.261,65.232-12.682
			h0.001c16.868-6.824,32.436-16.191,46.273-27.839c9.588-8.082,18.187-17.22,25.562-27.163l0,0
			c4.102-5.529,5.03-12.794,2.449-19.176l-0.821-2.031C336.206,151.09,332.542,154.494,328.712,157.722z"/>
	</g>
	<g id="XMLID_1000_">
		<path id="XMLID_1001_" style="fill:#FFE165;" d="M74.785,65.018h-48.89l5.211-20.843c2.068-8.273,9.502-14.077,18.03-14.077h2.407
			c8.528,0,15.962,5.804,18.03,14.077L74.785,65.018z"/>
		<path id="XMLID_1901_" style="fill:#FFE165;" d="M10.88,70.141l1.073-2.981c2.411-6.699,8.765-11.166,15.885-11.166h33.64
			c9.324,0,16.883,7.559,16.883,16.883v4.506c0,90.485,73.616,164.1,164.103,164.1c8.517,0,17.05-0.654,25.365-1.945l0,0
			c12.965-2.009,24.667,8.02,24.667,21.139v15.418c0,7.455-3.881,14.372-10.244,18.258l0,0
			c-11.441,6.988-23.784,12.672-36.691,16.893c-18.62,6.077-38.054,9.161-57.759,9.165h-0.001c-24.327,0-48.093-4.626-70.64-13.75
			c-23.106-9.349-43.805-22.979-61.523-40.513C3.99,215.027-13.578,138.09,10.88,70.141z"/>
		<path id="XMLID_1002_" style="fill:#FFA250;" d="M277.326,279.482c-18.62,6.077-38.054,9.161-57.759,9.165h-0.001
			c-24.327,0-48.093-4.626-70.64-13.75c-23.106-9.349-43.805-22.979-61.523-40.513C40.174,187.637,21.45,119.303,37.292,55.995
			h-9.454c-7.12,0-13.474,4.467-15.885,11.166l-1.073,2.981c-24.458,67.948-6.89,144.885,44.758,196.006
			c17.718,17.533,38.417,31.164,61.523,40.513c22.546,9.124,46.313,13.75,70.64,13.75h0.001c19.705-0.004,39.139-3.088,57.759-9.165
			c12.906-4.221,25.25-9.905,36.691-16.893l0,0c6.362-3.885,10.243-10.803,10.243-18.258v-2.372
			C287.542,275.866,282.481,277.796,277.326,279.482z"/>
	</g>
</g>
<g>
</g>
<g>
</g>
<g>
</g>
<g>
</g>
<g>
</g>
<g>
</g>
<g>
</g>
<g>
</g>
<g>
</g>
<g>
</g>
<g>
</g>
<g>
</g>
<g>
</g>
<g>
</g>
<g>
</g>
</svg>
